# Blender v3.0.0 OBJ File: 'kitchen counter.blend'
# www.blender.org
mtllib counter_base.mtl
o Counterbase_Cube.002
v 0.992056 0.080000 0.096465
v 0.992056 1.920000 0.096465
v 0.992056 0.080000 -1.403535
v 0.992056 1.920000 -1.403535
v 4.492055 0.080000 0.096465
v 4.492055 1.920000 0.096465
v 4.492055 0.080000 -1.403535
v 4.492055 1.920000 -1.403535
v 2.220078 0.080000 -1.403535
v 2.220078 1.920000 -1.403535
v 2.220078 0.080000 0.096465
v 2.220078 1.920000 0.096465
v 0.992056 0.540000 0.096465
v 0.992056 1.000000 0.096465
v 0.992056 1.460000 0.096465
v 0.992056 1.460000 -1.403535
v 0.992056 1.000000 -1.403535
v 0.992056 0.540000 -1.403535
v 2.220078 1.460000 0.096465
v 2.220078 1.000000 0.096465
v 2.220078 0.540000 0.096465
v 2.220078 1.460000 -1.403535
v 2.220078 1.000000 -1.403535
v 2.220078 0.540000 -1.403535
v 2.207321 1.471962 0.096465
v 2.207321 1.908038 0.096465
v 1.004813 1.908038 0.096465
v 1.004813 1.471962 0.096465
v 4.479299 0.091962 0.096465
v 4.479299 1.908038 0.096465
v 2.232835 1.908038 0.096465
v 2.232835 1.460000 0.096465
v 2.232835 1.000000 0.096465
v 2.232835 0.540000 0.096465
v 2.232835 0.091962 0.096465
v 2.207321 0.091962 0.096465
v 2.207321 0.528038 0.096465
v 1.004813 0.528038 0.096465
v 1.004813 0.091962 0.096465
v 2.207321 0.551962 0.096465
v 2.207321 0.988038 0.096465
v 1.004813 0.988038 0.096465
v 1.004813 0.551962 0.096465
v 2.207321 1.011962 0.096465
v 2.207321 1.448038 0.096465
v 1.004813 1.448038 0.096465
v 1.004813 1.011962 0.096465
v 2.207321 1.908038 0.133242
v 2.207321 1.471962 0.133242
v 1.004813 1.471962 0.133242
v 1.004813 1.908038 0.133242
v 4.479299 1.908038 0.133242
v 4.479299 0.091962 0.133242
v 2.232835 0.091962 0.133242
v 2.232835 1.908038 0.133242
v 2.232835 1.460000 0.133242
v 2.232835 1.000000 0.133242
v 2.232835 0.540000 0.133242
v 2.207321 0.528038 0.133242
v 2.207321 0.091962 0.133242
v 1.004813 0.091962 0.133242
v 1.004813 0.528038 0.133242
v 2.207321 0.988038 0.133242
v 2.207321 0.551962 0.133242
v 1.004813 0.551962 0.133242
v 1.004813 0.988038 0.133242
v 2.207321 1.448038 0.133242
v 2.207321 1.011962 0.133242
v 1.004813 1.011962 0.133242
v 1.004813 1.448038 0.133242
v 0.992056 0.080000 -1.046350
v 0.992056 0.080000 -0.166402
v 0.992056 1.920000 -0.166402
v 0.992056 1.920000 -1.046350
v 4.492055 0.080000 -0.166402
v 4.492055 0.080000 -1.046350
v 4.492055 1.920000 -1.046350
v 4.492055 1.920000 -0.166402
v 2.220078 1.920000 -1.046350
v 2.220078 1.920000 -0.166402
v 2.220078 0.080000 -1.046350
v 2.220078 0.080000 -0.166402
v 0.992056 0.540000 -0.166402
v 0.992056 0.540000 -1.046350
v 0.992056 1.000000 -0.166402
v 0.992056 1.000000 -1.046350
v 0.992056 1.460000 -0.166402
v 0.992056 1.460000 -1.046350
v 3.081258 1.920000 -1.403535
v 4.194087 1.920000 -1.403535
v 4.194087 1.920000 0.096465
v 3.081258 1.920000 0.096465
v 4.188994 1.908038 0.096465
v 3.084669 1.908038 0.096465
v 4.188994 1.908038 0.133242
v 3.084669 1.908038 0.133242
v 3.081257 1.920000 -1.046350
v 4.194087 1.920000 -1.046350
v 3.081257 1.920000 -0.166402
v 4.194087 1.920000 -0.166402
v 3.081257 1.855431 -1.046350
v 4.194087 1.855431 -1.046350
v 3.081257 1.855431 -0.166402
v 4.194087 1.855431 -0.166402
v 2.249631 1.855431 -1.349180
v 4.467468 1.855431 -1.349180
v 2.249631 1.855431 0.067906
v 4.467468 1.855431 0.067906
v 2.249631 0.115894 -1.349180
v 4.467468 0.115894 -1.349180
v 2.249631 0.115894 0.067906
v 4.467468 0.115894 0.067906
vt 0.900727 0.557935
vt 0.995170 0.420160
vt 0.900727 0.420160
vt 0.284808 0.144610
vt 0.275083 0.282385
vt 0.284808 0.282385
vt 0.993166 0.294948
vt 0.355086 0.225444
vt 0.355086 0.294948
vt 0.010198 0.294948
vt 0.355086 0.225444
vt 0.355086 0.294948
vt 0.596946 0.225444
vt 0.596946 0.294948
vt 0.010198 0.225444
vt 0.010198 0.294948
vt 0.010198 0.557935
vt 0.355086 0.420160
vt 0.010198 0.420160
vt 0.010198 0.144610
vt 0.355086 0.006835
vt 0.010198 0.006835
vt 0.010198 0.282385
vt 0.355086 0.144610
vt 0.355086 0.282385
vt 0.275083 0.420160
vt 0.284808 0.420160
vt 0.284808 0.285968
vt 0.275083 0.416577
vt 0.284808 0.416577
vt 0.275083 0.554352
vt 0.284808 0.554352
vt 0.284808 0.148193
vt 0.275083 0.278802
vt 0.284808 0.278802
vt 0.076243 0.557935
vt 0.006739 0.006835
vt 0.076243 0.006835
vt 0.596946 0.557935
vt 0.993166 0.006835
vt 0.900727 0.144610
vt 0.995170 0.006835
vt 0.900727 0.006835
vt 0.900727 0.282385
vt 0.995170 0.144610
vt 0.995170 0.282385
vt 0.355086 0.557935
vt 0.351503 0.423743
vt 0.355086 0.420160
vt 0.013781 0.554352
vt 0.351503 0.554352
vt 0.010198 0.420160
vt 0.010198 0.557935
vt 0.013781 0.423743
vt 0.993166 0.557935
vt 0.989583 0.010418
vt 0.993166 0.006835
vt 0.596946 0.557935
vt 0.358669 0.554352
vt 0.597904 0.554352
vt 0.355086 0.282385
vt 0.358669 0.420160
vt 0.355086 0.144610
vt 0.358669 0.282385
vt 0.358669 0.010418
vt 0.358669 0.144610
vt 0.355086 0.006835
vt 0.351503 0.010418
vt 0.010198 0.144610
vt 0.351503 0.141028
vt 0.010198 0.006835
vt 0.013781 0.141028
vt 0.013781 0.010418
vt 0.351503 0.148193
vt 0.010198 0.282385
vt 0.351503 0.278802
vt 0.013781 0.278802
vt 0.013781 0.148193
vt 0.351503 0.285968
vt 0.351503 0.416577
vt 0.013781 0.416577
vt 0.013781 0.285968
vt 0.351503 0.554352
vt 0.013781 0.423743
vt 0.351503 0.423743
vt 0.358669 0.282385
vt 0.989583 0.010418
vt 0.597904 0.554352
vt 0.351503 0.141028
vt 0.013781 0.010418
vt 0.351503 0.010418
vt 0.351503 0.278802
vt 0.013781 0.148193
vt 0.351503 0.148193
vt 0.351503 0.416577
vt 0.013781 0.285968
vt 0.351503 0.285968
vt 0.284808 0.010418
vt 0.275083 0.144610
vt 0.284808 0.141028
vt 0.275083 0.010418
vt 0.284808 0.010418
vt 0.284808 0.554352
vt 0.275083 0.423743
vt 0.284808 0.423743
vt 0.284808 0.278802
vt 0.275083 0.148193
vt 0.284808 0.148193
vt 0.284808 0.554352
vt 0.275083 0.010418
vt 0.284808 0.010418
vt 0.351503 0.225444
vt 0.013781 0.215719
vt 0.013781 0.225444
vt 0.284808 0.416577
vt 0.275083 0.285968
vt 0.284808 0.285968
vt 0.351503 0.225444
vt 0.013781 0.215719
vt 0.013781 0.225444
vt 0.351503 0.225444
vt 0.013781 0.215719
vt 0.013781 0.225444
vt 0.989583 0.225444
vt 0.358669 0.215719
vt 0.358669 0.225444
vt 0.013781 0.225444
vt 0.351503 0.215719
vt 0.351503 0.225444
vt 0.351503 0.225444
vt 0.013781 0.215719
vt 0.013781 0.225444
vt 0.013781 0.225444
vt 0.351503 0.215719
vt 0.351503 0.225444
vt 0.013781 0.225444
vt 0.351503 0.215719
vt 0.351503 0.225444
vt 0.358669 0.225444
vt 0.597904 0.215719
vt 0.597904 0.225444
vt 0.284808 0.010418
vt 0.275083 0.141028
vt 0.284808 0.141028
vt 0.013781 0.225444
vt 0.351503 0.215719
vt 0.351503 0.225444
vt 0.284808 0.423743
vt 0.275083 0.554352
vt 0.284808 0.554352
vt 0.598557 0.420160
vt 0.668062 0.282385
vt 0.598557 0.282385
vt 0.668062 0.420160
vt 0.668062 0.144610
vt 0.598557 0.144610
vt 0.668062 0.006835
vt 0.598557 0.006835
vt 0.403351 0.557935
vt 0.308909 0.006835
vt 0.403351 0.006835
vt 0.308909 0.557935
vt 0.355086 0.622056
vt 0.010198 0.527613
vt 0.010198 0.622056
vt 0.355086 0.527613
vt 0.355086 0.622056
vt 0.596946 0.527613
vt 0.596946 0.622056
vt 0.355086 0.527613
vt 0.010198 0.527613
vt 0.993166 0.527613
vt 0.598557 0.557935
vt 0.668062 0.557935
vt 0.909482 0.527613
vt 0.993166 0.294948
vt 0.993166 0.527613
vt 0.909482 0.622056
vt 0.993166 0.622056
vt 0.908052 0.225444
vt 0.989583 0.215719
vt 0.989583 0.225444
vt 0.908052 0.215719
vt 0.909482 0.557935
vt 0.989583 0.554352
vt 0.908052 0.554352
vt 0.909482 0.225444
vt 0.993166 0.225444
vt 0.909482 0.294948
vt 0.354312 0.557935
vt 0.586977 0.538596
vt 0.586977 0.557935
vt 0.909482 0.557935
vt 0.596946 0.538596
vt 0.596946 0.557935
vt 0.596946 0.557935
vt 0.909482 0.538596
vt 0.909482 0.557935
vt 0.586977 0.557935
vt 0.354312 0.538596
vt 0.354312 0.557935
vt 0.909482 0.527613
vt 0.986260 0.232995
vt 0.909482 0.294948
vt 0.596946 0.527613
vt 0.986260 0.607684
vt 0.363385 0.232995
vt 0.363385 0.607684
vt 0.596946 0.294948
vt 0.667048 0.538596
vt 0.292359 0.017586
vt 0.292359 0.538596
vt 0.363385 0.538596
vt 0.986260 0.017586
vt 0.986260 0.538596
vt 0.292359 0.538596
vt 0.667048 0.017586
vt 0.667048 0.538596
vt 0.986260 0.538596
vt 0.363385 0.017586
vt 0.363385 0.538596
vt 0.363385 0.607684
vt 0.986260 0.232995
vt 0.986260 0.607684
vt 0.995170 0.557935
vt 0.993166 0.225444
vt 0.010198 0.225444
vt 0.355086 0.557935
vt 0.275083 0.285968
vt 0.275083 0.148193
vt 0.006739 0.557935
vt 0.909482 0.557935
vt 0.993166 0.557935
vt 0.013781 0.554352
vt 0.358669 0.010418
vt 0.358669 0.144610
vt 0.989583 0.554352
vt 0.908052 0.554352
vt 0.358669 0.554352
vt 0.358669 0.420160
vt 0.013781 0.141028
vt 0.013781 0.278802
vt 0.013781 0.416577
vt 0.275083 0.010418
vt 0.275083 0.141028
vt 0.275083 0.554352
vt 0.275083 0.278802
vt 0.275083 0.554352
vt 0.351503 0.215719
vt 0.275083 0.416577
vt 0.351503 0.215719
vt 0.351503 0.215719
vt 0.989583 0.215719
vt 0.013781 0.215719
vt 0.351503 0.215719
vt 0.013781 0.215719
vt 0.013781 0.215719
vt 0.358669 0.215719
vt 0.275083 0.010418
vt 0.013781 0.215719
vt 0.275083 0.423743
vt 0.010198 0.622056
vt 0.993166 0.622056
vt 0.354312 0.538596
vt 0.909482 0.538596
vt 0.596946 0.538596
vt 0.586977 0.538596
vt 0.667048 0.017586
vt 0.363385 0.017586
vt 0.292359 0.017586
vt 0.986260 0.017586
vt 0.363385 0.232995
vn -1.0000 0.0000 0.0000
vn 0.0000 -1.0000 -0.0000
vn 0.0000 1.0000 -0.0000
vn 0.0000 0.0000 -1.0000
vn 1.0000 0.0000 0.0000
vn 0.0000 0.0000 1.0000
usemtl wood_panel
s off
f 74/1/1 16/2/1 88/3/1
f 34/4/1 57/5/1 33/6/1
f 75/7/2 11/8/2 82/9/2
f 73/10/3 12/11/3 80/12/3
f 80/12/3 92/13/3 99/14/3
f 82/9/2 1/15/2 72/16/2
f 4/17/4 22/18/4 16/19/4
f 18/20/4 9/21/4 3/22/4
f 17/23/4 24/24/4 18/20/4
f 16/19/4 23/25/4 17/23/4
f 33/6/1 56/26/1 32/27/1
f 47/28/1 70/29/1 46/30/1
f 32/27/1 55/31/1 31/32/1
f 43/33/1 66/34/1 42/35/1
f 78/36/5 5/37/5 75/38/5
f 23/25/4 89/39/4 7/40/4
f 84/41/1 3/42/1 71/43/1
f 86/44/1 18/45/1 84/41/1
f 88/3/1 17/46/1 86/44/1
f 12/47/6 25/48/6 19/49/6
f 12/47/6 27/50/6 26/51/6
f 15/52/6 27/50/6 2/53/6
f 19/49/6 28/54/6 15/52/6
f 6/55/6 29/56/6 5/57/6
f 92/58/6 31/59/6 94/60/6
f 19/49/6 31/59/6 12/47/6
f 20/61/6 32/62/6 19/49/6
f 21/63/6 33/64/6 20/61/6
f 21/63/6 35/65/6 34/66/6
f 5/57/6 35/65/6 11/67/6
f 21/63/6 36/68/6 11/67/6
f 13/69/6 37/70/6 21/63/6
f 1/71/6 38/72/6 13/69/6
f 1/71/6 36/68/6 39/73/6
f 20/61/6 40/74/6 21/63/6
f 14/75/6 41/76/6 20/61/6
f 13/69/6 42/77/6 14/75/6
f 21/63/6 43/78/6 13/69/6
f 19/49/6 44/79/6 20/61/6
f 15/52/6 45/80/6 19/49/6
f 14/75/6 46/81/6 15/52/6
f 20/61/6 47/82/6 14/75/6
f 48/83/6 50/84/6 49/85/6
f 57/86/6 53/87/6 96/88/6
f 59/89/6 61/90/6 60/91/6
f 63/92/6 65/93/6 64/94/6
f 67/95/6 69/96/6 68/97/6
f 35/98/1 58/99/1 34/4/1
f 37/100/5 60/101/5 36/102/5
f 26/103/5 49/104/5 25/105/5
f 41/106/5 64/107/5 40/108/5
f 30/109/5 53/110/5 29/111/5
f 36/112/2 61/113/2 39/114/2
f 45/115/5 68/116/5 44/117/5
f 25/118/2 50/119/2 28/120/2
f 40/121/2 65/122/2 43/123/2
f 29/124/2 54/125/2 35/126/2
f 38/127/3 59/128/3 37/129/3
f 44/130/2 69/131/2 47/132/2
f 27/133/3 48/134/3 26/135/3
f 42/136/3 63/137/3 41/138/3
f 31/139/3 96/140/3 94/141/3
f 39/142/1 62/143/1 38/144/1
f 46/145/3 67/146/3 45/147/3
f 28/148/1 51/149/1 27/150/1
f 15/151/1 85/152/1 14/153/1
f 87/154/1 86/44/1 85/152/1
f 14/153/1 83/155/1 13/156/1
f 85/152/1 84/41/1 83/155/1
f 13/156/1 72/157/1 1/158/1
f 83/155/1 71/43/1 72/157/1
f 8/159/5 76/160/5 7/161/5
f 77/162/5 75/38/5 76/160/5
f 9/163/2 71/164/2 3/165/2
f 81/166/2 72/16/2 71/164/2
f 10/167/3 97/168/3 89/169/3
f 79/170/3 99/14/3 97/168/3
f 10/167/3 74/171/3 79/170/3
f 74/171/3 80/12/3 79/170/3
f 9/163/2 76/172/2 81/166/2
f 76/172/2 82/9/2 81/166/2
f 2/173/1 87/154/1 15/151/1
f 73/174/1 88/3/1 87/154/1
f 98/175/3 78/176/3 77/177/3
f 90/178/3 77/177/3 8/179/3
f 89/169/3 98/175/3 90/178/3
f 93/180/3 52/181/3 30/182/3
f 94/141/3 95/183/3 93/180/3
f 91/184/6 30/185/6 6/55/6
f 92/58/6 93/186/6 91/184/6
f 78/176/3 91/187/3 6/188/3
f 100/189/3 92/13/3 91/187/3
f 99/190/5 101/191/5 97/192/5
f 100/193/4 103/194/4 99/195/4
f 97/196/6 102/197/6 98/198/6
f 98/199/1 104/200/1 100/201/1
f 102/202/2 108/203/2 104/204/2
f 101/205/2 106/206/2 102/202/2
f 101/205/2 107/207/2 105/208/2
f 103/209/2 108/203/2 107/207/2
f 106/210/1 112/211/1 108/212/1
f 105/213/6 110/214/6 106/215/6
f 107/216/5 109/217/5 105/218/5
f 108/219/4 111/220/4 107/221/4
f 109/222/3 112/223/3 110/224/3
f 74/1/1 4/225/1 16/2/1
f 34/4/1 58/99/1 57/5/1
f 75/7/2 5/226/2 11/8/2
f 73/10/3 2/227/3 12/11/3
f 80/12/3 12/11/3 92/13/3
f 82/9/2 11/8/2 1/15/2
f 4/17/4 10/228/4 22/18/4
f 18/20/4 24/24/4 9/21/4
f 17/23/4 23/25/4 24/24/4
f 16/19/4 22/18/4 23/25/4
f 33/6/1 57/5/1 56/26/1
f 47/28/1 69/229/1 70/29/1
f 32/27/1 56/26/1 55/31/1
f 43/33/1 65/230/1 66/34/1
f 78/36/5 6/231/5 5/37/5
f 7/40/4 9/21/4 24/24/4
f 23/25/4 22/18/4 89/39/4
f 22/18/4 10/228/4 89/39/4
f 7/40/4 24/24/4 23/25/4
f 90/232/4 8/233/4 7/40/4
f 89/39/4 90/232/4 7/40/4
f 84/41/1 18/45/1 3/42/1
f 86/44/1 17/46/1 18/45/1
f 88/3/1 16/2/1 17/46/1
f 12/47/6 26/51/6 25/48/6
f 12/47/6 2/53/6 27/50/6
f 15/52/6 28/54/6 27/50/6
f 19/49/6 25/48/6 28/54/6
f 6/55/6 30/185/6 29/56/6
f 92/58/6 12/47/6 31/59/6
f 19/49/6 32/62/6 31/59/6
f 20/61/6 33/64/6 32/62/6
f 21/63/6 34/66/6 33/64/6
f 21/63/6 11/67/6 35/65/6
f 5/57/6 29/56/6 35/65/6
f 21/63/6 37/70/6 36/68/6
f 13/69/6 38/72/6 37/70/6
f 1/71/6 39/73/6 38/72/6
f 1/71/6 11/67/6 36/68/6
f 20/61/6 41/76/6 40/74/6
f 14/75/6 42/77/6 41/76/6
f 13/69/6 43/78/6 42/77/6
f 21/63/6 40/74/6 43/78/6
f 19/49/6 45/80/6 44/79/6
f 15/52/6 46/81/6 45/80/6
f 14/75/6 47/82/6 46/81/6
f 20/61/6 44/79/6 47/82/6
f 48/83/6 51/234/6 50/84/6
f 54/235/6 53/87/6 58/236/6
f 53/87/6 52/237/6 95/238/6
f 95/238/6 96/88/6 53/87/6
f 96/88/6 55/239/6 56/240/6
f 58/236/6 53/87/6 57/86/6
f 56/240/6 57/86/6 96/88/6
f 59/89/6 62/241/6 61/90/6
f 63/92/6 66/242/6 65/93/6
f 67/95/6 70/243/6 69/96/6
f 35/98/1 54/244/1 58/99/1
f 37/100/5 59/245/5 60/101/5
f 26/103/5 48/246/5 49/104/5
f 41/106/5 63/247/5 64/107/5
f 30/109/5 52/248/5 53/110/5
f 36/112/2 60/249/2 61/113/2
f 45/115/5 67/250/5 68/116/5
f 25/118/2 49/251/2 50/119/2
f 40/121/2 64/252/2 65/122/2
f 29/124/2 53/253/2 54/125/2
f 38/127/3 62/254/3 59/128/3
f 44/130/2 68/255/2 69/131/2
f 27/133/3 51/256/3 48/134/3
f 42/136/3 66/257/3 63/137/3
f 31/139/3 55/258/3 96/140/3
f 39/142/1 61/259/1 62/143/1
f 46/145/3 70/260/3 67/146/3
f 28/148/1 50/261/1 51/149/1
f 15/151/1 87/154/1 85/152/1
f 87/154/1 88/3/1 86/44/1
f 14/153/1 85/152/1 83/155/1
f 85/152/1 86/44/1 84/41/1
f 13/156/1 83/155/1 72/157/1
f 83/155/1 84/41/1 71/43/1
f 8/159/5 77/162/5 76/160/5
f 77/162/5 78/36/5 75/38/5
f 9/163/2 81/166/2 71/164/2
f 81/166/2 82/9/2 72/16/2
f 10/167/3 79/170/3 97/168/3
f 79/170/3 80/12/3 99/14/3
f 10/167/3 4/262/3 74/171/3
f 74/171/3 73/10/3 80/12/3
f 9/163/2 7/263/2 76/172/2
f 76/172/2 75/7/2 82/9/2
f 2/173/1 73/174/1 87/154/1
f 73/174/1 74/1/1 88/3/1
f 98/175/3 100/189/3 78/176/3
f 90/178/3 98/175/3 77/177/3
f 89/169/3 97/168/3 98/175/3
f 93/180/3 95/183/3 52/181/3
f 94/141/3 96/140/3 95/183/3
f 91/184/6 93/186/6 30/185/6
f 92/58/6 94/60/6 93/186/6
f 78/176/3 100/189/3 91/187/3
f 100/189/3 99/14/3 92/13/3
f 99/190/5 103/264/5 101/191/5
f 100/193/4 104/265/4 103/194/4
f 97/196/6 101/266/6 102/197/6
f 98/199/1 102/267/1 104/200/1
f 102/202/2 106/206/2 108/203/2
f 101/205/2 105/208/2 106/206/2
f 101/205/2 103/209/2 107/207/2
f 103/209/2 104/204/2 108/203/2
f 106/210/1 110/268/1 112/211/1
f 105/213/6 109/269/6 110/214/6
f 107/216/5 111/270/5 109/217/5
f 108/219/4 112/271/4 111/220/4
f 109/222/3 111/272/3 112/223/3
