# This file uses centimeters as units for non-parametric coordinates.

mtllib ipad_screen.mtl
g default
v -9.656712 0.711748 13.055066
v 9.656712 0.711748 13.055066
v -9.656712 0.711748 -14.053472
v 9.656712 0.711748 -14.053472
vt 0.998008 0.854805
vt 0.001992 0.854805
vt 0.998008 0.145195
vt 0.001992 0.145195
vn 0.000000 1.000000 0.000000
vn 0.000000 1.000000 0.000000
vn 0.000000 1.000000 0.000000
vn 0.000000 1.000000 0.000000
s 1
g screen
usemtl initialShadingGroup
f 2/1/1 4/2/2 1/3/3
f 1/3/3 4/2/2 3/4/4
