# Blender v3.0.0 OBJ File: 'kitchen counter.blend'
# www.blender.org
mtllib sink.mtl
o Sink_Cube
v 3.099004 1.537727 -0.176570
v 3.099004 1.537727 -1.034601
v 4.180046 1.537727 -0.176570
v 4.180046 1.537727 -1.034601
v 3.099004 1.985929 -0.176570
v 3.099004 1.985929 -1.034601
v 4.180046 1.985929 -1.034601
v 4.180046 1.985929 -0.176570
v 3.099004 1.992883 -0.176570
v 3.076389 2.014016 -0.158620
v 3.097897 1.999264 -0.175691
v 3.094685 2.005076 -0.173142
v 3.089682 2.009752 -0.169171
v 3.083378 2.012832 -0.164167
v 3.076389 2.014016 -1.052550
v 3.099004 1.992883 -1.034601
v 3.083378 2.012832 -1.047003
v 3.089682 2.009752 -1.041999
v 3.094685 2.005076 -1.038029
v 3.097897 1.999264 -1.035479
v 4.202661 2.014016 -1.052550
v 4.180046 1.992883 -1.034601
v 4.195672 2.012832 -1.047003
v 4.189368 2.009752 -1.042000
v 4.184365 2.005076 -1.038029
v 4.181153 1.999264 -1.035479
v 4.202661 2.014016 -0.158620
v 4.180046 1.992883 -0.176570
v 4.195672 2.012832 -0.164167
v 4.189368 2.009752 -0.169171
v 4.184365 2.005076 -0.173142
v 4.181153 1.999264 -0.175691
v 4.198110 1.983979 -1.095413
v 4.256664 1.983979 -1.036859
v 4.210809 1.985146 -1.059018
v 4.216204 1.983979 -1.092547
v 4.232527 1.983979 -1.084230
v 4.245481 1.983979 -1.071276
v 4.253798 1.983979 -1.054953
v 4.256664 2.015390 -1.036859
v 4.198110 2.015390 -1.095413
v 4.210809 2.014224 -1.059018
v 4.253798 2.015390 -1.054953
v 4.245481 2.015390 -1.071276
v 4.232527 2.015390 -1.084230
v 4.216204 2.015390 -1.092547
v 3.022386 1.983979 -1.036859
v 3.080940 1.983979 -1.095413
v 3.068240 1.985146 -1.059018
v 3.025252 1.983979 -1.054953
v 3.033569 1.983979 -1.071276
v 3.046523 1.983979 -1.084230
v 3.062846 1.983979 -1.092547
v 3.080940 2.015390 -1.095413
v 3.022386 2.015390 -1.036859
v 3.068240 2.014224 -1.059018
v 3.062846 2.015390 -1.092547
v 3.046523 2.015390 -1.084230
v 3.033569 2.015390 -1.071276
v 3.025252 2.015390 -1.054953
v 4.198110 2.015390 -0.115757
v 4.256664 2.015390 -0.174312
v 4.210809 2.014224 -0.152153
v 4.216204 2.015390 -0.118623
v 4.232527 2.015390 -0.126940
v 4.245481 2.015390 -0.139894
v 4.253798 2.015390 -0.156217
v 4.256664 1.983979 -0.174312
v 4.198110 1.983979 -0.115757
v 4.210809 1.985146 -0.152153
v 4.253798 1.983979 -0.156217
v 4.245481 1.983979 -0.139894
v 4.232527 1.983979 -0.126940
v 4.216204 1.983979 -0.118623
v 3.080940 1.983979 -0.115757
v 3.022386 1.983979 -0.174312
v 3.068240 1.985146 -0.152153
v 3.062846 1.983979 -0.118623
v 3.046523 1.983979 -0.126940
v 3.033569 1.983979 -0.139894
v 3.025252 1.983979 -0.156217
v 3.022386 2.015390 -0.174312
v 3.080940 2.015390 -0.115757
v 3.068240 2.014224 -0.152153
v 3.025252 2.015390 -0.156217
v 3.033569 2.015390 -0.139894
v 3.046523 2.015390 -0.126940
v 3.062846 2.015390 -0.118623
v 3.099004 1.521389 -0.720297
v 3.099004 1.521389 -0.487883
v 4.180046 1.537727 -0.487883
v 4.180046 1.537727 -0.720297
v 3.419791 1.537727 -1.034601
v 3.186413 1.537727 -1.034601
v 3.186413 1.537727 -0.176570
v 3.419791 1.537727 -0.176570
v 3.419791 1.516291 -0.720297
v 3.186413 1.516291 -0.720297
v 3.419791 1.516291 -0.487883
v 3.186413 1.516291 -0.487883
v 3.201259 1.516021 -0.705450
v 3.404944 1.516021 -0.705450
v 3.404944 1.516021 -0.502729
v 3.201259 1.516021 -0.502729
vt 0.512963 0.761860
vt 0.512963 0.988140
vt 0.512963 0.750000
vt 0.512963 0.014943
vt 0.512963 0.235057
vt 0.512963 0.250000
vt 0.512963 0.514943
vt 0.512963 0.735057
vt 0.512963 0.261860
vt 0.512963 0.488140
vt 0.228547 0.750000
vt 0.375000 0.664354
vt 0.228547 0.664354
vt 0.000000 0.000000
vt 0.000000 0.000000
vt 0.000000 0.000000
vt 0.375000 0.581021
vt 0.375000 0.353547
vt 0.512963 0.500000
vt 0.512963 0.000000
vt 0.375000 0.168979
vt 0.521431 0.261860
vt 0.383307 0.000000
vt 0.383307 0.186810
vt 0.000000 0.000000
vt 0.000000 0.000000
vt 0.000000 0.000000
vt 0.383307 0.373621
vt 0.000000 0.000000
vt 0.000000 0.000000
vt 0.000000 0.000000
vt 0.521431 0.014943
vt 0.000000 0.000000
vt 0.000000 0.000000
vt 0.000000 0.000000
vt 0.521431 0.761860
vt 0.375000 0.896453
vt 0.375000 0.979786
vt 0.512963 1.000000
vt 0.383307 0.747241
vt 0.264334 0.386481
vt 0.383307 0.560431
vt 0.264334 0.515435
vt 0.155956 0.228015
vt 0.155956 0.304592
vt 0.000000 0.000000
vt 0.000000 0.000000
vt 0.000000 0.000000
vt 0.264334 0.257654
vt 0.155956 0.152021
vt 0.000000 0.000000
vt 0.000000 0.000000
vt 0.264334 0.128827
vt 0.155956 0.076001
vt 0.000000 0.000000
vt 0.000000 0.000000
vt 0.264334 -0.000128
vt 0.155956 -0.000550
vt 0.000000 0.000000
vt 0.512963 0.491805
vt 0.512963 0.500000
vt 0.512963 0.495111
vt 0.512963 0.497735
vt 0.512963 0.499420
vt 0.512963 0.500000
vt 0.000000 0.000000
vt 0.000000 0.000000
vt 0.000000 0.000000
vt 0.000000 0.000000
vt 0.000000 0.000000
vt 0.512963 0.239675
vt 0.512963 0.250000
vt 0.512963 0.243840
vt 0.512963 0.247146
vt 0.512963 0.249269
vt 0.512963 0.250000
vt 0.000000 0.000000
vt 0.000000 0.000000
vt 0.000000 0.000000
vt 0.000000 0.000000
vt 0.000000 0.000000
vt 0.000000 0.000000
vt 0.000000 0.000000
vt 0.000000 0.000000
vt 0.000000 0.000000
vt 0.000000 0.000000
vt 0.512963 0.739675
vt 0.512963 0.750000
vt 0.512963 0.743840
vt 0.512963 0.747146
vt 0.512963 0.749269
vt 0.512963 0.750000
vt 0.512963 -0.012093
vt 0.512963 -0.007681
vt 0.512963 0.000000
vt 0.512963 0.000000
vt 0.512963 0.006160
vt 0.512963 0.010325
vt 0.000000 0.000000
vt 0.000000 0.000000
vt 0.000000 0.000000
vt 0.000000 0.000000
vt 0.000000 0.000000
vt 0.521431 0.988140
vt 0.512963 0.991805
vt 0.521431 0.991805
vt 0.512963 0.995111
vt 0.521431 0.000000
vt 0.521431 0.006160
vt 0.521431 0.010325
vt 0.521431 0.758195
vt 0.512963 0.758195
vt 0.521431 0.754889
vt 0.512963 0.754889
vt 0.521431 0.743841
vt 0.521431 0.739675
vt 0.521431 0.735057
vt 0.521431 0.510325
vt 0.521431 0.514943
vt 0.512963 0.510325
vt 0.521431 0.506160
vt 0.512963 0.506160
vt 0.521431 0.495111
vt 0.521431 0.491805
vt 0.521431 0.488140
vt 0.521431 0.258195
vt 0.512963 0.258195
vt 0.521431 0.254889
vt 0.512963 0.254889
vt 0.521431 0.243840
vt 0.521431 0.239675
vt 0.521431 0.235057
vt 0.228547 0.500000
vt 0.375000 0.500000
vt 0.228547 0.581021
vt 0.125000 0.664354
vt 0.145214 0.581021
vt 0.125000 0.581021
vt 0.150515 0.586344
vt 0.223246 0.659031
vt 0.223246 0.586344
vt 0.145214 0.500000
vt 0.125000 0.500000
vt 0.145214 0.750000
vt 0.145214 0.664354
vt 0.150515 0.659031
vt 0.512963 1.000000
vt 0.375000 0.750000
vt 0.375000 0.250000
vt 0.375000 0.270214
vt 0.375000 0.000000
vt 0.375000 0.085646
vt 0.375000 1.000000
vt 0.521431 0.995111
vt 0.125000 0.750000
vn 0.0000 -0.9995 -0.0320
vn 0.0254 -0.9997 0.0000
vn -0.0254 -0.9997 0.0000
vn 0.0000 -0.9995 0.0320
vn -0.0281 0.9972 -0.0687
vn 0.0000 0.9995 -0.0320
vn -1.0000 0.0000 0.0000
vn 0.0000 0.0000 1.0000
vn 1.0000 -0.0000 0.0000
vn 0.0000 0.0000 -1.0000
vn -0.0254 0.9997 0.0000
vn 0.0254 0.9997 0.0000
vn 0.0000 0.9995 0.0321
vn 0.0000 0.1364 -0.9907
vn 0.0000 0.4017 -0.9158
vn 0.0000 0.6473 -0.7622
vn 0.0000 0.8515 -0.5243
vn 0.0000 0.9780 -0.2088
vn -0.9853 0.1709 0.0000
vn -0.8753 0.4837 0.0000
vn -0.6828 0.7306 0.0000
vn -0.4391 0.8985 0.0000
vn -0.1670 0.9859 0.0000
vn 0.0000 0.1364 0.9907
vn 0.0000 0.4017 0.9158
vn 0.0000 0.6473 0.7622
vn 0.0000 0.8515 0.5243
vn 0.0000 0.9780 0.2088
vn 0.9853 0.1708 0.0000
vn 0.8752 0.4838 0.0000
vn 0.6828 0.7306 0.0000
vn 0.4391 0.8985 0.0000
vn 0.1670 0.9859 0.0000
vn -0.0054 -0.9994 0.0339
vn -0.0164 -0.9993 0.0322
vn -0.0249 -0.9994 0.0249
vn -0.0285 -0.9995 0.0145
vn -0.0275 -0.9996 0.0044
vn -0.0275 0.9996 0.0044
vn -0.0285 0.9995 0.0145
vn -0.0248 0.9994 0.0249
vn -0.0164 0.9993 0.0321
vn -0.0054 0.9994 0.0339
vn 0.0275 -0.9996 0.0044
vn 0.0285 -0.9995 0.0145
vn 0.0249 -0.9994 0.0249
vn 0.0164 -0.9993 0.0321
vn 0.0054 -0.9994 0.0339
vn 0.0054 0.9994 0.0339
vn 0.0164 0.9993 0.0322
vn 0.0248 0.9994 0.0248
vn 0.0285 0.9995 0.0145
vn 0.0275 0.9996 0.0044
vn -0.0054 0.9994 -0.0339
vn -0.0164 0.9993 -0.0322
vn -0.0248 0.9994 -0.0249
vn -0.0285 0.9995 -0.0145
vn -0.0275 0.9996 -0.0044
vn -0.0275 -0.9996 -0.0044
vn -0.0285 -0.9995 -0.0145
vn -0.0249 -0.9994 -0.0249
vn -0.0164 -0.9993 -0.0321
vn -0.0054 -0.9994 -0.0339
vn 0.0054 -0.9994 -0.0339
vn 0.0164 -0.9993 -0.0321
vn 0.0249 -0.9994 -0.0248
vn 0.0285 -0.9995 -0.0145
vn 0.0275 -0.9996 -0.0044
vn 0.0275 0.9996 -0.0044
vn 0.0285 0.9995 -0.0145
vn 0.0248 0.9994 -0.0249
vn 0.0164 0.9993 -0.0321
vn 0.0054 0.9994 -0.0339
vn -0.1564 0.0000 0.9877
vn -0.4540 0.0000 0.8910
vn -0.7071 0.0000 0.7071
vn -0.8910 0.0000 0.4540
vn -0.9877 0.0000 0.1564
vn 0.1564 0.0000 0.9877
vn 0.4540 0.0000 0.8910
vn 0.7071 0.0000 0.7071
vn 0.8910 0.0000 0.4540
vn 0.9877 0.0000 0.1564
vn 0.9877 0.0000 -0.1564
vn 0.8910 0.0000 -0.4540
vn 0.7071 0.0000 -0.7071
vn 0.4540 0.0000 -0.8910
vn 0.1564 0.0000 -0.9877
vn -0.1564 0.0000 -0.9877
vn -0.4540 0.0000 -0.8910
vn -0.7071 0.0000 -0.7071
vn -0.8910 0.0000 -0.4540
vn -0.9877 0.0000 -0.1564
vn 0.0000 1.0000 0.0000
vn -0.0282 0.9996 0.0000
vn 0.0582 0.9983 0.0000
vn 0.0000 0.9987 0.0519
vn 0.0000 0.9977 0.0680
vn 0.0581 0.9960 -0.0686
vn 0.0000 0.9976 -0.0687
vn 0.0000 0.9998 0.0182
vn -0.0182 0.9998 0.0000
vn 0.0000 0.9998 -0.0182
vn 0.0182 0.9998 0.0000
vn 0.0000 -0.9995 -0.0321
vn 0.0000 -0.9995 0.0321
vn -0.0000 0.9995 -0.0321
vn 0.0000 0.9995 0.0320
vn 0.0000 0.6474 -0.7622
vn 0.0000 0.8516 -0.5242
vn 0.0000 0.9780 -0.2087
vn -0.9853 0.1711 0.0000
vn -0.4390 0.8985 0.0000
vn 0.0000 0.6474 0.7622
vn 0.0000 0.8516 0.5242
vn 0.0000 0.9780 0.2087
vn 0.9853 0.1709 0.0000
vn 0.8753 0.4837 0.0000
vn 0.4390 0.8985 0.0000
vn -0.0281 0.9973 0.0680
vn 0.0581 0.9960 0.0679
vn 0.0000 0.9986 -0.0524
usemtl Material.002
s off
f 69/1/1 75/2/1 8/3/1
f 76/4/2 47/5/2 6/6/2
f 34/7/3 68/8/3 8/3/3
f 48/9/4 33/10/4 6/6/4
f 96/11/5 91/12/5 99/13/5
f 83/14/6 61/15/6 27/16/6
f 92/17/7 91/12/7 8/3/7
f 93/18/8 7/19/8 6/6/8
f 6/6/9 5/20/9 89/21/9
f 54/22/10 33/10/10 48/9/10
f 6/6/9 9/23/9 5/20/9
f 7/19/8 16/24/8 6/6/8
f 62/25/11 40/26/11 21/27/11
f 8/3/7 22/28/7 7/19/7
f 55/29/12 82/30/12 10/31/12
f 82/32/7 47/5/7 76/4/7
f 41/33/13 54/34/13 15/35/13
f 61/36/8 75/2/8 69/1/8
f 96/37/10 95/38/10 5/39/10
f 9/40/14 32/41/14 28/42/14
f 11/43/15 31/44/15 32/41/15
f 12/45/16 30/46/16 31/44/16
f 13/47/17 29/48/17 30/46/17
f 29/48/18 10/31/18 27/16/18
f 22/28/19 32/41/19 26/49/19
f 32/41/20 25/50/20 26/49/20
f 25/50/21 30/46/21 24/51/21
f 30/46/22 23/52/22 24/51/22
f 29/48/23 21/27/23 23/52/23
f 22/28/24 20/53/24 16/24/24
f 26/49/25 19/54/25 20/53/25
f 25/50/26 18/55/26 19/54/26
f 24/51/27 17/56/27 18/55/27
f 17/56/28 21/27/28 15/35/28
f 9/23/29 20/53/29 11/57/29
f 20/53/30 12/58/30 11/57/30
f 12/58/31 18/55/31 13/47/31
f 18/55/32 14/59/32 13/47/32
f 14/59/33 15/35/33 10/31/33
f 5/39/10 28/42/10 8/3/10
f 33/10/34 36/60/34 35/61/34
f 36/60/35 37/62/35 35/61/35
f 37/62/36 38/63/36 35/61/36
f 38/63/37 39/64/37 35/61/37
f 39/64/38 34/65/38 35/61/38
f 40/26/39 43/66/39 42/67/39
f 43/66/40 44/68/40 42/67/40
f 44/68/41 45/69/41 42/67/41
f 45/69/42 46/70/42 42/67/42
f 46/70/43 41/33/43 42/67/43
f 47/5/44 50/71/44 49/72/44
f 50/71/45 51/73/45 49/72/45
f 51/73/46 52/74/46 49/72/46
f 52/74/47 53/75/47 49/72/47
f 53/75/48 48/76/48 49/72/48
f 54/34/49 57/77/49 56/78/49
f 57/77/50 58/79/50 56/78/50
f 58/79/51 59/80/51 56/78/51
f 59/80/52 60/81/52 56/78/52
f 60/81/53 55/29/53 56/78/53
f 61/15/54 64/82/54 63/83/54
f 64/82/55 65/84/55 63/83/55
f 65/84/56 66/85/56 63/83/56
f 66/85/57 67/86/57 63/83/57
f 67/86/58 62/25/58 63/83/58
f 68/8/59 71/87/59 70/88/59
f 71/87/60 72/89/60 70/88/60
f 72/89/61 73/90/61 70/88/61
f 73/90/62 74/91/62 70/88/62
f 74/91/63 69/92/63 70/88/63
f 75/93/64 78/94/64 77/95/64
f 78/94/65 79/96/65 77/95/65
f 79/96/66 80/97/66 77/95/66
f 80/97/67 81/98/67 77/95/67
f 81/98/68 76/4/68 77/95/68
f 82/30/69 85/99/69 84/100/69
f 85/99/70 86/101/70 84/100/70
f 86/101/71 87/102/71 84/100/71
f 87/102/72 88/103/72 84/100/72
f 88/103/73 83/14/73 84/100/73
f 83/104/74 78/105/74 75/2/74
f 88/106/75 79/107/75 78/105/75
f 87/108/76 80/97/76 79/96/76
f 86/109/77 81/98/77 80/97/77
f 85/110/78 76/4/78 81/98/78
f 69/1/79 64/111/79 61/36/79
f 74/112/80 65/113/80 64/111/80
f 73/114/81 66/115/81 65/113/81
f 72/89/82 67/116/82 66/115/82
f 71/87/83 62/117/83 67/116/83
f 34/7/84 43/118/84 40/119/84
f 39/120/85 44/121/85 43/118/85
f 38/122/86 45/123/86 44/121/86
f 37/62/87 46/124/87 45/123/87
f 36/60/88 41/125/88 46/124/88
f 48/9/89 57/126/89 54/22/89
f 53/127/90 58/128/90 57/126/90
f 52/129/91 59/130/91 58/128/91
f 51/73/92 60/131/92 59/130/92
f 50/71/93 55/132/93 60/131/93
f 40/119/9 68/8/9 34/7/9
f 93/133/94 92/17/94 4/134/94
f 97/135/95 91/12/95 92/17/95
f 90/136/96 98/137/96 89/138/96
f 101/139/94 103/140/94 102/141/94
f 89/138/97 94/142/97 2/143/97
f 98/137/98 93/133/98 94/142/98
f 90/136/99 95/144/99 100/145/99
f 95/144/100 99/13/100 100/145/100
f 101/139/101 97/135/101 98/137/101
f 102/141/102 99/13/102 97/135/102
f 99/13/103 104/146/103 100/145/103
f 104/146/104 98/137/104 100/145/104
f 77/147/1 5/39/1 75/2/1
f 5/39/1 8/3/1 75/2/1
f 8/3/105 70/88/105 69/1/105
f 49/72/2 6/6/2 47/5/2
f 6/6/2 5/20/2 76/4/2
f 5/20/2 77/95/2 76/4/2
f 70/88/3 8/3/3 68/8/3
f 8/3/3 7/19/3 34/7/3
f 7/19/3 35/61/3 34/7/3
f 35/61/106 7/19/106 33/10/106
f 7/19/4 6/6/4 33/10/4
f 6/6/4 49/72/4 48/9/4
f 96/11/94 3/148/94 91/12/94
f 63/83/107 27/16/107 61/15/107
f 27/16/107 10/31/107 83/14/107
f 10/31/6 84/100/6 83/14/6
f 7/19/7 4/134/7 92/17/7
f 91/12/7 3/148/7 8/3/7
f 7/19/7 92/17/7 8/3/7
f 6/6/8 2/149/8 94/150/8
f 93/18/8 4/134/8 7/19/8
f 6/6/8 94/150/8 93/18/8
f 5/20/9 1/151/9 90/152/9
f 90/152/9 89/21/9 5/20/9
f 89/21/9 2/149/9 6/6/9
f 54/22/10 41/125/10 33/10/10
f 6/6/9 16/24/9 9/23/9
f 7/19/8 22/28/8 16/24/8
f 42/67/11 21/27/11 40/26/11
f 21/27/11 27/16/11 62/25/11
f 27/16/11 63/83/11 62/25/11
f 8/3/7 28/42/7 22/28/7
f 84/100/12 10/31/12 82/30/12
f 10/31/12 15/35/12 55/29/12
f 15/35/12 56/78/12 55/29/12
f 82/32/7 55/132/7 47/5/7
f 56/78/108 15/35/108 54/34/108
f 15/35/108 21/27/108 41/33/108
f 21/27/13 42/67/13 41/33/13
f 61/36/8 83/104/8 75/2/8
f 8/3/10 3/148/10 96/37/10
f 95/38/10 1/153/10 5/39/10
f 8/3/10 96/37/10 5/39/10
f 9/40/14 11/43/14 32/41/14
f 11/43/15 12/45/15 31/44/15
f 12/45/109 13/47/109 30/46/109
f 13/47/110 14/59/110 29/48/110
f 29/48/111 14/59/111 10/31/111
f 22/28/112 28/42/112 32/41/112
f 32/41/20 31/44/20 25/50/20
f 25/50/21 31/44/21 30/46/21
f 30/46/113 29/48/113 23/52/113
f 29/48/23 27/16/23 21/27/23
f 22/28/24 26/49/24 20/53/24
f 26/49/25 25/50/25 19/54/25
f 25/50/114 24/51/114 18/55/114
f 24/51/115 23/52/115 17/56/115
f 17/56/116 23/52/116 21/27/116
f 9/23/117 16/24/117 20/53/117
f 20/53/118 19/54/118 12/58/118
f 12/58/31 19/54/31 18/55/31
f 18/55/119 17/56/119 14/59/119
f 14/59/33 17/56/33 15/35/33
f 5/39/10 9/40/10 28/42/10
f 83/104/74 88/106/74 78/105/74
f 88/106/75 87/154/75 79/107/75
f 87/108/76 86/109/76 80/97/76
f 86/109/77 85/110/77 81/98/77
f 85/110/78 82/32/78 76/4/78
f 69/1/79 74/112/79 64/111/79
f 74/112/80 73/114/80 65/113/80
f 73/114/81 72/89/81 66/115/81
f 72/89/82 71/87/82 67/116/82
f 71/87/83 68/8/83 62/117/83
f 34/7/84 39/120/84 43/118/84
f 39/120/85 38/122/85 44/121/85
f 38/122/86 37/62/86 45/123/86
f 37/62/87 36/60/87 46/124/87
f 36/60/88 33/10/88 41/125/88
f 48/9/89 53/127/89 57/126/89
f 53/127/90 52/129/90 58/128/90
f 52/129/91 51/73/91 59/130/91
f 51/73/92 50/71/92 60/131/92
f 50/71/93 47/5/93 55/132/93
f 40/119/9 62/117/9 68/8/9
f 93/133/120 97/135/120 92/17/120
f 97/135/95 99/13/95 91/12/95
f 90/136/96 100/145/96 98/137/96
f 101/139/94 104/146/94 103/140/94
f 89/138/121 98/137/121 94/142/121
f 98/137/98 97/135/98 93/133/98
f 90/136/122 1/155/122 95/144/122
f 95/144/100 96/11/100 99/13/100
f 101/139/101 102/141/101 97/135/101
f 102/141/102 103/140/102 99/13/102
f 99/13/103 103/140/103 104/146/103
f 104/146/104 101/139/104 98/137/104
