# Blender v3.6.0 OBJ File: 'kitchen counter.blend'
# www.blender.org
o Plane.001
v -0.000000 5.000000 3.000000
v 0.000000 0.000000 3.000000
v -0.000000 5.000000 -2.000000
v 0.000000 0.000000 -2.000000
v 6.000000 5.000000 -2.000000
v 6.000000 -0.000000 -2.000000
v 3.273625 5.000000 -2.000000
v 1.188971 5.000000 -2.000000
v 1.188971 0.000000 -2.000000
v 3.273625 -0.000000 -2.000000
v -0.000000 4.412908 3.000000
v 0.000000 2.376464 3.000000
v 0.000000 2.376465 -2.000000
v -0.000000 4.412908 -2.000000
v 6.000000 2.376464 -2.000000
v 6.000000 4.412908 -2.000000
v 1.188971 2.376464 -2.000000
v 1.188971 4.412908 -2.000000
v 3.273625 2.376464 -2.000000
v 3.273625 4.412907 -2.000000
v 6.000000 5.000000 3.000000
v 6.000000 -0.000000 3.000000
v 6.000000 2.376464 3.000000
v 6.000000 4.412908 3.000000
vt 0.006567 0.007197
vt 1.521874 0.727412
vt 0.006567 0.727412
vt 2.513984 0.007196
vt 3.340244 0.727411
vt 2.513985 0.727411
vt 1.521875 0.007196
vt 1.882206 0.727411
vt 1.882206 0.007196
vt 1.882206 1.344579
vt 2.513984 1.522504
vt 1.882206 1.522504
vt 1.521874 1.344579
vt 1.521875 1.522505
vt 2.513985 1.344579
vt 3.340244 1.522504
vt 3.340244 1.344579
vt 0.006567 1.344579
vt 0.006567 1.522504
vt 4.855552 1.344578
vt 3.340244 0.007196
vt 4.855551 0.727411
vt 4.855552 1.522503
vt 4.855552 0.007195
vn 1.0000 0.0000 -0.0000
vn 0.0000 0.0000 1.0000
vn -1.0000 0.0000 0.0000
s off
f 2/1/1 13/2/1 12/3/1
f 10/4/2 15/5/2 19/6/2
f 4/7/2 17/8/2 13/2/2
f 9/9/2 19/6/2 17/8/2
f 18/10/2 7/11/2 8/12/2
f 14/13/2 8/12/2 3/14/2
f 13/2/2 18/10/2 14/13/2
f 20/15/2 5/16/2 7/11/2
f 19/6/2 16/17/2 20/15/2
f 11/18/1 3/14/1 1/19/1
f 12/3/1 14/13/1 11/18/1
f 15/5/3 24/20/3 16/17/3
f 6/21/3 23/22/3 15/5/3
f 16/17/3 21/23/3 5/16/3
f 2/1/1 4/7/1 13/2/1
f 10/4/2 6/21/2 15/5/2
f 4/7/2 9/9/2 17/8/2
f 9/9/2 10/4/2 19/6/2
f 18/10/2 20/15/2 7/11/2
f 14/13/2 18/10/2 8/12/2
f 13/2/2 17/8/2 18/10/2
f 20/15/2 16/17/2 5/16/2
f 19/6/2 15/5/2 16/17/2
f 11/18/1 14/13/1 3/14/1
f 12/3/1 13/2/1 14/13/1
f 15/5/3 23/22/3 24/20/3
f 6/21/3 22/24/3 23/22/3
f 16/17/3 24/20/3 21/23/3
