# Blender v3.6.0 OBJ File: 'kitchen counter.blend'
# www.blender.org
mtllib wall.mtl
o Plane.001
v -0.000000 5.000000 3.000000
v 0.000000 0.000000 3.000000
v -0.000000 5.000000 -2.000000
v 0.000000 0.000000 -2.000000
v 6.000000 5.000000 -2.000000
v 6.000000 -0.000000 -2.000000
v 3.273625 5.000000 -2.000000
v 1.188971 5.000000 -2.000000
v 1.188971 0.000000 -2.000000
v 3.273625 -0.000000 -2.000000
v -0.000000 4.161831 3.000000
v 0.000000 2.376464 3.000000
v 0.000000 2.376465 -2.000000
v -0.000000 4.161831 -2.000000
v 6.000000 2.376464 -2.000000
v 6.000000 4.161831 -2.000000
v 1.188971 2.376464 -2.000000
v 1.188971 4.161831 -2.000000
v 3.273625 2.376464 -2.000000
v 3.273625 4.161831 -2.000000
v 6.000000 5.000000 3.000000
v 6.000000 -0.000000 3.000000
v 6.000000 2.376464 3.000000
v 6.000000 4.161831 3.000000
vt 0.003633 0.002465
vt 0.836966 0.398542
vt 0.003633 0.398542
vt 0.545982 0.002136
vt 1.000377 0.398214
vt 0.545982 0.398214
vt 0.000377 0.002136
vt 0.198539 0.398214
vt 0.000377 0.398214
vt 0.198539 0.002136
vt 0.198539 0.695775
vt 0.545982 0.835470
vt 0.198539 0.835470
vt 0.000377 0.695775
vt 0.000377 0.835470
vt 0.545982 0.695775
vt 1.000377 0.835470
vt 1.000377 0.695775
vt 0.003633 0.696103
vt 0.836966 0.835798
vt 0.003633 0.835798
vt 0.836966 0.696103
vt 0.836966 0.399519
vt 0.003633 0.697080
vt 0.836966 0.697080
vt 0.836966 0.003441
vt 0.003633 0.399519
vt 0.003633 0.836775
vt 0.836966 0.836774
vt 0.836966 0.002465
vt 1.000377 0.002136
vt 0.003633 0.003441
vn 1.0000 0.0000 -0.0000
vn 0.0000 0.0000 1.0000
vn -1.0000 0.0000 0.0000
usemtl Wall
s off
f 2/1/1 13/2/1 12/3/1
f 10/4/2 15/5/2 19/6/2
f 4/7/2 17/8/2 13/9/2
f 9/10/2 19/6/2 17/8/2
f 18/11/2 7/12/2 8/13/2
f 14/14/2 8/13/2 3/15/2
f 14/14/2 17/8/2 18/11/2
f 20/16/2 5/17/2 7/12/2
f 19/6/2 16/18/2 20/16/2
f 11/19/1 3/20/1 1/21/1
f 12/3/1 14/22/1 11/19/1
f 15/23/3 24/24/3 16/25/3
f 6/26/3 23/27/3 15/23/3
f 16/25/3 21/28/3 5/29/3
f 2/1/1 4/30/1 13/2/1
f 10/4/2 6/31/2 15/5/2
f 4/7/2 9/10/2 17/8/2
f 9/10/2 10/4/2 19/6/2
f 18/11/2 20/16/2 7/12/2
f 14/14/2 18/11/2 8/13/2
f 14/14/2 13/9/2 17/8/2
f 20/16/2 16/18/2 5/17/2
f 19/6/2 15/5/2 16/18/2
f 11/19/1 14/22/1 3/20/1
f 12/3/1 13/2/1 14/22/1
f 15/23/3 23/27/3 24/24/3
f 6/26/3 22/32/3 23/27/3
f 16/25/3 24/24/3 21/28/3
